<?xml version="1.0" encoding="UTF-8"?>
<svg viewBox="-4 -4 72 72" version="1.1" xmlns="http://www.w3.org/2000/svg" xmlns:xlink="http://www.w3.org/1999/xlink">
    <g stroke="none" stroke-width="1" fill-rule="evenodd">
        <path d="M32,21.3333333 C34.9333333,21.3333333 37.3333333,18.9333333 37.3333333,16 C37.3333333,13.0666667 34.9333333,10.6666667 32,10.6666667 C29.0666667,10.6666667 26.6666667,13.0666667 26.6666667,16 C26.6666667,18.9333333 29.0666667,21.3333333 32,21.3333333 L32,21.3333333 Z M32,26.6666667 C29.0666667,26.6666667 26.6666667,29.0666667 26.6666667,32 C26.6666667,34.9333333 29.0666667,37.3333333 32,37.3333333 C34.9333333,37.3333333 37.3333333,34.9333333 37.3333333,32 C37.3333333,29.0666667 34.9333333,26.6666667 32,26.6666667 L32,26.6666667 Z M32,42.6666667 C29.0666667,42.6666667 26.6666667,45.0666667 26.6666667,48 C26.6666667,50.9333333 29.0666667,53.3333333 32,53.3333333 C34.9333333,53.3333333 37.3333333,50.9333333 37.3333333,48 C37.3333333,45.0666667 34.9333333,42.6666667 32,42.6666667 L32,42.6666667 Z"/>
    </g>
</svg>
