<?xml version="1.0" encoding="UTF-8"?>
<svg viewBox="-16 -16 96 96" version="1.1" xmlns="http://www.w3.org/2000/svg" xmlns:xlink="http://www.w3.org/1999/xlink">
    <g stroke="none" stroke-width="1" fill-rule="evenodd">
        <polygon points="0 21.5155556 0 42.8488889 14.2222222 42.8488889 32 60.6266667 32 3.73777778 14.2222222 21.5155556"/>
        <path d="M64,32 C64,47.2682175 53.3069282,60.0389343 39.0011314,63.2318035 L39.0011205,61.1786915 C52.1926996,58.0250931 62,46.1578554 62,32 C62,17.8421446 52.1926996,5.97490689 39.0011205,2.82130851 L39.0011314,0.768196483 C53.3069282,3.96106574 64,16.7317825 64,32 Z" />
        <path d="M53,32 C53,41.1430422 47.1569724,48.9213722 39.0013101,51.8045969 L39.0010344,49.6685673 C46.0297275,46.8811488 51,40.0210091 51,32 C51,23.9789909 46.0297275,17.1188512 39.0010344,14.3314327 L39.0013101,12.1954031 C47.1569724,15.0786278 53,22.8569578 53,32 Z" />
    </g>
</svg>
