<?xml version="1.0" encoding="UTF-8"?>
<svg viewBox="0 0 64 64" version="1.1" xmlns="http://www.w3.org/2000/svg" xmlns:xlink="http://www.w3.org/1999/xlink">
    <g stroke="none" stroke-width="1" fill-rule="evenodd">
        <path d="M15.394,20.3427778 L32,36.9497778 L32,60.6266667 L14.2222222,42.8488889 L-7.10542736e-15,42.8488889 L-7.10542736e-15,21.5155556 L14.2222222,21.5155556 L15.394,20.3427778 Z M32,3.73777778 L32,27.0517778 L20.343,15.3947778 L32,3.73777778 Z"/>
        <path d="M50.5949675,55.5435848 L52.0179766,56.9670626 C48.2767727,59.9705311 43.8461428,62.1504595 39.0011314,63.2318035 L39.0011205,61.1786915 C43.2990221,60.1512288 47.237683,58.1988146 50.5949675,55.5435848 Z M39.0011314,0.768196483 C53.3069282,3.96106574 64,16.7317825 64,32 C64,39.5755268 61.3676024,46.5362241 56.9676319,52.0172675 L55.5442381,50.5941415 C59.5867434,45.4824125 62,39.0230294 62,32 C62,17.8421446 52.1926996,5.97490689 39.0011205,2.82130851 L39.0011314,0.768196483 Z" />
        <path d="M42.7321171,47.6808835 L44.1680783,49.1174696 C42.5933085,50.2389241 40.8571858,51.1484998 39.0013101,51.8045969 L39.0010344,49.6685673 C40.3241452,49.1438519 41.574314,48.474816 42.7321171,47.6808835 Z M39.0013101,12.1954031 C47.1569724,15.0786278 53,22.8569578 53,32 C53,36.5354903 51.5621785,40.7351594 49.1174823,44.1680605 L47.6814544,42.7312844 C49.7750643,39.6777964 51,35.9819477 51,32 C51,23.9789909 46.0297275,17.1188512 39.0010344,14.3314327 L39.0013101,12.1954031 Z" />
        <rect transform="translate(32.173359, 32.173359) rotate(-315.000000) translate(-32.173359, -32.173359) " x="-7.82664146" y="29.6733585" width="80" height="5"/>
    </g>
</svg>
